<mxfile host="app.diagrams.net" modified="2022-12-02T13:34:19.905Z" agent="5.0 (Windows NT 10.0; Win64; x64) AppleWebKit/537.36 (KHTML, like Gecko) Chrome/107.0.0.0 Safari/537.36" etag="u9Y86K1Yf6t644Ys7B0J" version="20.6.0" type="github">
  <diagram id="xggmqmnDdCMUJtHXeGxX" name="PÃ¡gina-1">
    <mxGraphModel dx="539" dy="1471" grid="0" gridSize="10" guides="1" tooltips="1" connect="1" arrows="1" fold="1" page="1" pageScale="1" pageWidth="827" pageHeight="1169" math="0" shadow="0">
      <root>
        <mxCell id="0" />
        <mxCell id="1" parent="0" />
        <mxCell id="7BhhN1L9Lo45RrHUkkJ7-12" value="&lt;h3&gt;AWS Cloud design a three-tier architecture&lt;/h3&gt;" style="points=[[0,0],[0.25,0],[0.5,0],[0.75,0],[1,0],[1,0.25],[1,0.5],[1,0.75],[1,1],[0.75,1],[0.5,1],[0.25,1],[0,1],[0,0.75],[0,0.5],[0,0.25]];outlineConnect=0;html=1;whiteSpace=wrap;fontSize=12;fontStyle=0;container=1;pointerEvents=0;collapsible=0;recursiveResize=0;shape=mxgraph.aws4.group;grIcon=mxgraph.aws4.group_aws_cloud_alt;fillColor=#f5f5f5;verticalAlign=top;align=center;spacingLeft=30;dashed=0;labelBackgroundColor=none;strokeWidth=1;gradientColor=#b3b3b3;strokeColor=#666666;" vertex="1" parent="1">
          <mxGeometry x="20" y="-110" width="820" height="930" as="geometry" />
        </mxCell>
        <mxCell id="Yk63QLegk9tkWfs8BIzJ-25" value="US-EAST-1" style="points=[[0,0],[0.25,0],[0.5,0],[0.75,0],[1,0],[1,0.25],[1,0.5],[1,0.75],[1,1],[0.75,1],[0.5,1],[0.25,1],[0,1],[0,0.75],[0,0.5],[0,0.25]];outlineConnect=0;html=1;whiteSpace=wrap;fontSize=12;fontStyle=0;container=1;pointerEvents=0;collapsible=0;recursiveResize=0;shape=mxgraph.aws4.group;grIcon=mxgraph.aws4.group_region;verticalAlign=top;align=left;spacingLeft=30;dashed=1;labelBackgroundColor=none;strokeWidth=2;fillColor=none;strokeColor=#7EA6E0;" parent="1" vertex="1">
          <mxGeometry x="50" y="-70" width="760" height="860" as="geometry" />
        </mxCell>
        <mxCell id="Yk63QLegk9tkWfs8BIzJ-33" value="us-east-1a" style="fillColor=none;strokeColor=#000000;verticalAlign=top;fontStyle=0;fontColor=#147EBA;labelBackgroundColor=none;strokeWidth=2;" parent="Yk63QLegk9tkWfs8BIzJ-25" vertex="1">
          <mxGeometry x="90" y="30" width="230" height="770" as="geometry" />
        </mxCell>
        <mxCell id="Yk63QLegk9tkWfs8BIzJ-34" value="us-east-1b" style="fillColor=none;strokeColor=#000000;verticalAlign=top;fontStyle=0;fontColor=#147EBA;labelBackgroundColor=none;strokeWidth=2;" parent="Yk63QLegk9tkWfs8BIzJ-25" vertex="1">
          <mxGeometry x="440" y="30" width="230" height="770" as="geometry" />
        </mxCell>
        <mxCell id="Yk63QLegk9tkWfs8BIzJ-35" value="" style="sketch=0;outlineConnect=0;fontColor=#232F3E;gradientColor=none;fillColor=#4D27AA;strokeColor=none;dashed=0;verticalLabelPosition=bottom;verticalAlign=top;align=center;html=1;fontSize=12;fontStyle=0;aspect=fixed;pointerEvents=1;shape=mxgraph.aws4.internet_gateway;labelBackgroundColor=none;strokeWidth=2;" parent="Yk63QLegk9tkWfs8BIzJ-25" vertex="1">
          <mxGeometry x="358" y="20" width="44" height="44" as="geometry" />
        </mxCell>
        <mxCell id="Yk63QLegk9tkWfs8BIzJ-47" value="Security group" style="fillColor=none;strokeColor=#DD3522;verticalAlign=top;fontStyle=0;fontColor=#DD3522;labelBackgroundColor=none;strokeWidth=1;" parent="Yk63QLegk9tkWfs8BIzJ-25" vertex="1">
          <mxGeometry x="100" y="570" width="560" height="179" as="geometry" />
        </mxCell>
        <mxCell id="Yk63QLegk9tkWfs8BIzJ-48" value="Security group" style="fillColor=none;strokeColor=#DD3522;verticalAlign=top;fontStyle=0;fontColor=#DD3522;labelBackgroundColor=none;strokeWidth=1;" parent="Yk63QLegk9tkWfs8BIzJ-25" vertex="1">
          <mxGeometry x="100" y="350.5" width="560" height="180" as="geometry" />
        </mxCell>
        <mxCell id="Yk63QLegk9tkWfs8BIzJ-49" value="Web Security group" style="fillColor=none;strokeColor=#DD3522;verticalAlign=top;fontStyle=0;fontColor=#DD3522;labelBackgroundColor=none;strokeWidth=1;" parent="Yk63QLegk9tkWfs8BIzJ-25" vertex="1">
          <mxGeometry x="100" y="140" width="560" height="180" as="geometry" />
        </mxCell>
        <mxCell id="Yk63QLegk9tkWfs8BIzJ-26" value="VPC&amp;nbsp; 10.1.0.0/16" style="points=[[0,0],[0.25,0],[0.5,0],[0.75,0],[1,0],[1,0.25],[1,0.5],[1,0.75],[1,1],[0.75,1],[0.5,1],[0.25,1],[0,1],[0,0.75],[0,0.5],[0,0.25]];outlineConnect=0;gradientColor=none;html=1;whiteSpace=wrap;fontSize=12;fontStyle=0;container=1;pointerEvents=0;collapsible=0;recursiveResize=0;shape=mxgraph.aws4.group;grIcon=mxgraph.aws4.group_vpc;strokeColor=#248814;fillColor=none;verticalAlign=top;align=left;spacingLeft=30;fontColor=#666666;dashed=0;labelBackgroundColor=none;strokeWidth=2;" parent="1" vertex="1">
          <mxGeometry x="80" y="-10" width="670" height="750" as="geometry" />
        </mxCell>
        <mxCell id="Yk63QLegk9tkWfs8BIzJ-27" value="Public subnet 10.1.1.0/24" style="points=[[0,0],[0.25,0],[0.5,0],[0.75,0],[1,0],[1,0.25],[1,0.5],[1,0.75],[1,1],[0.75,1],[0.5,1],[0.25,1],[0,1],[0,0.75],[0,0.5],[0,0.25]];outlineConnect=0;gradientColor=none;html=1;whiteSpace=wrap;fontSize=12;fontStyle=0;container=1;pointerEvents=0;collapsible=0;recursiveResize=0;shape=mxgraph.aws4.group;grIcon=mxgraph.aws4.group_security_group;grStroke=0;strokeColor=#248814;fillColor=#E9F3E6;verticalAlign=top;align=left;spacingLeft=30;fontColor=#248814;dashed=0;labelBackgroundColor=none;strokeWidth=2;" parent="Yk63QLegk9tkWfs8BIzJ-26" vertex="1">
          <mxGeometry x="80" y="90" width="200" height="160" as="geometry" />
        </mxCell>
        <mxCell id="Yk63QLegk9tkWfs8BIzJ-41" value="Amazon EC2" style="sketch=0;outlineConnect=0;fontColor=#232F3E;gradientColor=none;strokeColor=#ffffff;fillColor=#232F3E;dashed=0;verticalLabelPosition=middle;verticalAlign=bottom;align=center;html=1;whiteSpace=wrap;fontSize=10;fontStyle=1;spacing=3;shape=mxgraph.aws4.productIcon;prIcon=mxgraph.aws4.ec2;labelBackgroundColor=none;strokeWidth=0;" parent="Yk63QLegk9tkWfs8BIzJ-27" vertex="1">
          <mxGeometry x="60" y="40" width="80" height="100" as="geometry" />
        </mxCell>
        <mxCell id="Yk63QLegk9tkWfs8BIzJ-28" value="Public subnet 10.1.2.0/24" style="points=[[0,0],[0.25,0],[0.5,0],[0.75,0],[1,0],[1,0.25],[1,0.5],[1,0.75],[1,1],[0.75,1],[0.5,1],[0.25,1],[0,1],[0,0.75],[0,0.5],[0,0.25]];outlineConnect=0;gradientColor=none;html=1;whiteSpace=wrap;fontSize=12;fontStyle=0;container=1;pointerEvents=0;collapsible=0;recursiveResize=0;shape=mxgraph.aws4.group;grIcon=mxgraph.aws4.group_security_group;grStroke=0;strokeColor=#248814;fillColor=#E9F3E6;verticalAlign=top;align=left;spacingLeft=30;fontColor=#248814;dashed=0;labelBackgroundColor=none;strokeWidth=2;" parent="Yk63QLegk9tkWfs8BIzJ-26" vertex="1">
          <mxGeometry x="420" y="90" width="200" height="160" as="geometry" />
        </mxCell>
        <mxCell id="Yk63QLegk9tkWfs8BIzJ-42" value="Amazon EC2" style="sketch=0;outlineConnect=0;fontColor=#232F3E;gradientColor=none;strokeColor=#ffffff;fillColor=#232F3E;dashed=0;verticalLabelPosition=middle;verticalAlign=bottom;align=center;html=1;whiteSpace=wrap;fontSize=10;fontStyle=1;spacing=3;shape=mxgraph.aws4.productIcon;prIcon=mxgraph.aws4.ec2;labelBackgroundColor=none;strokeWidth=0;" parent="Yk63QLegk9tkWfs8BIzJ-28" vertex="1">
          <mxGeometry x="60" y="40" width="80" height="100" as="geometry" />
        </mxCell>
        <mxCell id="Yk63QLegk9tkWfs8BIzJ-29" value="Private subnet 10.1.3.0/24" style="points=[[0,0],[0.25,0],[0.5,0],[0.75,0],[1,0],[1,0.25],[1,0.5],[1,0.75],[1,1],[0.75,1],[0.5,1],[0.25,1],[0,1],[0,0.75],[0,0.5],[0,0.25]];outlineConnect=0;gradientColor=none;html=1;whiteSpace=wrap;fontSize=12;fontStyle=0;container=1;pointerEvents=0;collapsible=0;recursiveResize=0;shape=mxgraph.aws4.group;grIcon=mxgraph.aws4.group_security_group;grStroke=0;strokeColor=#147EBA;fillColor=#E6F2F8;verticalAlign=top;align=left;spacingLeft=30;fontColor=#147EBA;dashed=0;labelBackgroundColor=none;strokeWidth=2;" parent="Yk63QLegk9tkWfs8BIzJ-26" vertex="1">
          <mxGeometry x="80" y="300" width="200" height="160" as="geometry" />
        </mxCell>
        <mxCell id="Yk63QLegk9tkWfs8BIzJ-43" value="Amazon EC2" style="sketch=0;outlineConnect=0;fontColor=#232F3E;gradientColor=none;strokeColor=#ffffff;fillColor=#232F3E;dashed=0;verticalLabelPosition=middle;verticalAlign=bottom;align=center;html=1;whiteSpace=wrap;fontSize=10;fontStyle=1;spacing=3;shape=mxgraph.aws4.productIcon;prIcon=mxgraph.aws4.ec2;labelBackgroundColor=none;strokeWidth=0;" parent="Yk63QLegk9tkWfs8BIzJ-29" vertex="1">
          <mxGeometry x="60" y="38" width="80" height="100" as="geometry" />
        </mxCell>
        <mxCell id="Yk63QLegk9tkWfs8BIzJ-30" value="Private subnet 10.1.4.0/24" style="points=[[0,0],[0.25,0],[0.5,0],[0.75,0],[1,0],[1,0.25],[1,0.5],[1,0.75],[1,1],[0.75,1],[0.5,1],[0.25,1],[0,1],[0,0.75],[0,0.5],[0,0.25]];outlineConnect=0;gradientColor=none;html=1;whiteSpace=wrap;fontSize=12;fontStyle=0;container=1;pointerEvents=0;collapsible=0;recursiveResize=0;shape=mxgraph.aws4.group;grIcon=mxgraph.aws4.group_security_group;grStroke=0;strokeColor=#147EBA;fillColor=#E6F2F8;verticalAlign=top;align=left;spacingLeft=30;fontColor=#147EBA;dashed=0;labelBackgroundColor=none;strokeWidth=2;" parent="Yk63QLegk9tkWfs8BIzJ-26" vertex="1">
          <mxGeometry x="420" y="300" width="200" height="160" as="geometry" />
        </mxCell>
        <mxCell id="Yk63QLegk9tkWfs8BIzJ-44" value="Amazon EC2" style="sketch=0;outlineConnect=0;fontColor=#232F3E;gradientColor=none;strokeColor=#ffffff;fillColor=#232F3E;dashed=0;verticalLabelPosition=middle;verticalAlign=bottom;align=center;html=1;whiteSpace=wrap;fontSize=10;fontStyle=1;spacing=3;shape=mxgraph.aws4.productIcon;prIcon=mxgraph.aws4.ec2;labelBackgroundColor=none;strokeWidth=0;" parent="Yk63QLegk9tkWfs8BIzJ-30" vertex="1">
          <mxGeometry x="60" y="38" width="80" height="100" as="geometry" />
        </mxCell>
        <mxCell id="Yk63QLegk9tkWfs8BIzJ-36" value="Internet Gateway" style="rounded=0;whiteSpace=wrap;html=1;labelBackgroundColor=none;strokeWidth=0;dashed=1;fillColor=none;strokeColor=#FFFFFF;" parent="Yk63QLegk9tkWfs8BIzJ-26" vertex="1">
          <mxGeometry x="310" y="10" width="80" height="30" as="geometry" />
        </mxCell>
        <mxCell id="Yk63QLegk9tkWfs8BIzJ-39" value="Private subnet 10.1.5.0/24" style="points=[[0,0],[0.25,0],[0.5,0],[0.75,0],[1,0],[1,0.25],[1,0.5],[1,0.75],[1,1],[0.75,1],[0.5,1],[0.25,1],[0,1],[0,0.75],[0,0.5],[0,0.25]];outlineConnect=0;gradientColor=none;html=1;whiteSpace=wrap;fontSize=12;fontStyle=0;container=1;pointerEvents=0;collapsible=0;recursiveResize=0;shape=mxgraph.aws4.group;grIcon=mxgraph.aws4.group_security_group;grStroke=0;strokeColor=#147EBA;fillColor=#E6F2F8;verticalAlign=top;align=left;spacingLeft=30;fontColor=#147EBA;dashed=0;labelBackgroundColor=none;strokeWidth=0;" parent="Yk63QLegk9tkWfs8BIzJ-26" vertex="1">
          <mxGeometry x="80" y="515" width="200" height="160" as="geometry" />
        </mxCell>
        <mxCell id="Yk63QLegk9tkWfs8BIzJ-45" value="Amazon RDS" style="sketch=0;outlineConnect=0;fontColor=#232F3E;gradientColor=none;strokeColor=#ffffff;fillColor=#232F3E;dashed=0;verticalLabelPosition=middle;verticalAlign=bottom;align=center;html=1;whiteSpace=wrap;fontSize=10;fontStyle=1;spacing=3;shape=mxgraph.aws4.productIcon;prIcon=mxgraph.aws4.rds;labelBackgroundColor=none;strokeWidth=0;" parent="Yk63QLegk9tkWfs8BIzJ-39" vertex="1">
          <mxGeometry x="60" y="30" width="80" height="100" as="geometry" />
        </mxCell>
        <mxCell id="Yk63QLegk9tkWfs8BIzJ-40" value="Private subnet 10.1.6.0/24" style="points=[[0,0],[0.25,0],[0.5,0],[0.75,0],[1,0],[1,0.25],[1,0.5],[1,0.75],[1,1],[0.75,1],[0.5,1],[0.25,1],[0,1],[0,0.75],[0,0.5],[0,0.25]];outlineConnect=0;gradientColor=none;html=1;whiteSpace=wrap;fontSize=12;fontStyle=0;container=1;pointerEvents=0;collapsible=0;recursiveResize=0;shape=mxgraph.aws4.group;grIcon=mxgraph.aws4.group_security_group;grStroke=0;strokeColor=#147EBA;fillColor=#E6F2F8;verticalAlign=top;align=left;spacingLeft=30;fontColor=#147EBA;dashed=0;labelBackgroundColor=none;strokeWidth=0;" parent="Yk63QLegk9tkWfs8BIzJ-26" vertex="1">
          <mxGeometry x="420" y="515" width="200" height="160" as="geometry" />
        </mxCell>
        <mxCell id="Yk63QLegk9tkWfs8BIzJ-46" value="Amazon RDS" style="sketch=0;outlineConnect=0;fontColor=#232F3E;gradientColor=none;strokeColor=#ffffff;fillColor=#232F3E;dashed=0;verticalLabelPosition=middle;verticalAlign=bottom;align=center;html=1;whiteSpace=wrap;fontSize=10;fontStyle=1;spacing=3;shape=mxgraph.aws4.productIcon;prIcon=mxgraph.aws4.rds;labelBackgroundColor=none;strokeWidth=0;" parent="Yk63QLegk9tkWfs8BIzJ-40" vertex="1">
          <mxGeometry x="60" y="30" width="80" height="100" as="geometry" />
        </mxCell>
        <mxCell id="7BhhN1L9Lo45RrHUkkJ7-2" value="Auto Scaling group" style="points=[[0,0],[0.25,0],[0.5,0],[0.75,0],[1,0],[1,0.25],[1,0.5],[1,0.75],[1,1],[0.75,1],[0.5,1],[0.25,1],[0,1],[0,0.75],[0,0.5],[0,0.25]];outlineConnect=0;gradientColor=none;html=1;whiteSpace=wrap;fontSize=12;fontStyle=0;container=1;pointerEvents=0;collapsible=0;recursiveResize=0;shape=mxgraph.aws4.groupCenter;grIcon=mxgraph.aws4.group_auto_scaling_group;grStroke=1;strokeColor=#D86613;fillColor=none;verticalAlign=top;align=center;fontColor=#D86613;dashed=1;spacingTop=25;labelBackgroundColor=none;strokeWidth=1;" vertex="1" parent="Yk63QLegk9tkWfs8BIzJ-26">
          <mxGeometry x="110" y="322" width="480" height="130" as="geometry" />
        </mxCell>
        <mxCell id="7BhhN1L9Lo45RrHUkkJ7-10" value="Auto Scaling group" style="points=[[0,0],[0.25,0],[0.5,0],[0.75,0],[1,0],[1,0.25],[1,0.5],[1,0.75],[1,1],[0.75,1],[0.5,1],[0.25,1],[0,1],[0,0.75],[0,0.5],[0,0.25]];outlineConnect=0;gradientColor=none;html=1;whiteSpace=wrap;fontSize=12;fontStyle=0;container=1;pointerEvents=0;collapsible=0;recursiveResize=0;shape=mxgraph.aws4.groupCenter;grIcon=mxgraph.aws4.group_auto_scaling_group;grStroke=1;strokeColor=#D86613;fillColor=none;verticalAlign=top;align=center;fontColor=#D86613;dashed=1;spacingTop=25;labelBackgroundColor=none;strokeWidth=1;" vertex="1" parent="Yk63QLegk9tkWfs8BIzJ-26">
          <mxGeometry x="111" y="111" width="480" height="130" as="geometry" />
        </mxCell>
        <mxCell id="7BhhN1L9Lo45RrHUkkJ7-13" value="" style="sketch=0;outlineConnect=0;fontColor=#232F3E;gradientColor=none;fillColor=#4D27AA;strokeColor=none;dashed=0;verticalLabelPosition=bottom;verticalAlign=top;align=center;html=1;fontSize=12;fontStyle=0;aspect=fixed;pointerEvents=1;shape=mxgraph.aws4.application_load_balancer;labelBackgroundColor=none;strokeWidth=1;" vertex="1" parent="Yk63QLegk9tkWfs8BIzJ-26">
          <mxGeometry x="336" y="270" width="30" height="30" as="geometry" />
        </mxCell>
        <mxCell id="7BhhN1L9Lo45RrHUkkJ7-14" value="" style="sketch=0;outlineConnect=0;fontColor=#232F3E;gradientColor=none;fillColor=#4D27AA;strokeColor=none;dashed=0;verticalLabelPosition=bottom;verticalAlign=top;align=center;html=1;fontSize=12;fontStyle=0;aspect=fixed;pointerEvents=1;shape=mxgraph.aws4.application_load_balancer;labelBackgroundColor=none;strokeWidth=1;" vertex="1" parent="Yk63QLegk9tkWfs8BIzJ-26">
          <mxGeometry x="335" y="60" width="30" height="30" as="geometry" />
        </mxCell>
        <mxCell id="7BhhN1L9Lo45RrHUkkJ7-18" value="" style="sketch=0;outlineConnect=0;fontColor=#232F3E;gradientColor=none;fillColor=#4D27AA;strokeColor=none;dashed=0;verticalLabelPosition=bottom;verticalAlign=top;align=center;html=1;fontSize=12;fontStyle=0;aspect=fixed;pointerEvents=1;shape=mxgraph.aws4.nat_gateway;labelBackgroundColor=none;strokeWidth=1;" vertex="1" parent="Yk63QLegk9tkWfs8BIzJ-26">
          <mxGeometry x="244" y="70" width="30" height="30" as="geometry" />
        </mxCell>
        <mxCell id="7BhhN1L9Lo45RrHUkkJ7-19" value="" style="sketch=0;outlineConnect=0;fontColor=#232F3E;gradientColor=none;fillColor=#4D27AA;strokeColor=none;dashed=0;verticalLabelPosition=bottom;verticalAlign=top;align=center;html=1;fontSize=12;fontStyle=0;aspect=fixed;pointerEvents=1;shape=mxgraph.aws4.nat_gateway;labelBackgroundColor=none;strokeWidth=1;direction=west;" vertex="1" parent="Yk63QLegk9tkWfs8BIzJ-26">
          <mxGeometry x="450" y="70" width="30" height="30" as="geometry" />
        </mxCell>
        <mxCell id="7BhhN1L9Lo45RrHUkkJ7-20" value="" style="rounded=0;whiteSpace=wrap;html=1;labelBackgroundColor=none;strokeColor=#6c8ebf;strokeWidth=1;gradientColor=#7ea6e0;align=center;fillColor=#dae8fc;" vertex="1" parent="1">
          <mxGeometry x="840" y="-110" width="279" height="930" as="geometry" />
        </mxCell>
        <mxCell id="7BhhN1L9Lo45RrHUkkJ7-21" value="The first thing I did was to create a VPC." style="rounded=0;whiteSpace=wrap;html=1;labelBackgroundColor=none;strokeWidth=0;align=left;fillColor=none;strokeColor=#DAE8FC;" vertex="1" parent="1">
          <mxGeometry x="880" y="-81" width="208" height="47" as="geometry" />
        </mxCell>
        <mxCell id="7BhhN1L9Lo45RrHUkkJ7-24" value="&lt;h1&gt;1&lt;/h1&gt;" style="rounded=1;whiteSpace=wrap;html=1;labelBackgroundColor=none;strokeColor=#7EA6E0;strokeWidth=1;fontColor=#666666;gradientColor=none;" vertex="1" parent="1">
          <mxGeometry x="843" y="-72" width="31" height="29" as="geometry" />
        </mxCell>
        <mxCell id="7BhhN1L9Lo45RrHUkkJ7-25" value="&lt;h1&gt;2&lt;/h1&gt;" style="rounded=1;whiteSpace=wrap;html=1;labelBackgroundColor=none;strokeColor=#7EA6E0;strokeWidth=1;fontColor=#666666;gradientColor=none;" vertex="1" parent="1">
          <mxGeometry x="843" y="-12" width="31" height="29" as="geometry" />
        </mxCell>
        <mxCell id="7BhhN1L9Lo45RrHUkkJ7-26" value="We will create an internet gateway." style="rounded=0;whiteSpace=wrap;html=1;labelBackgroundColor=none;strokeWidth=0;align=left;fillColor=none;strokeColor=#DAE8FC;" vertex="1" parent="1">
          <mxGeometry x="880" y="-21" width="208" height="47" as="geometry" />
        </mxCell>
        <mxCell id="7BhhN1L9Lo45RrHUkkJ7-27" value="&lt;h1&gt;3&lt;/h1&gt;" style="rounded=1;whiteSpace=wrap;html=1;labelBackgroundColor=none;strokeColor=#7EA6E0;strokeWidth=1;fontColor=#666666;gradientColor=none;" vertex="1" parent="1">
          <mxGeometry x="843" y="52" width="31" height="29" as="geometry" />
        </mxCell>
        <mxCell id="7BhhN1L9Lo45RrHUkkJ7-28" value="Then we will create 6 subnets of which the public ones we will enable the auto-assign public IPv4." style="rounded=0;whiteSpace=wrap;html=1;labelBackgroundColor=none;strokeWidth=0;align=left;fillColor=none;strokeColor=#DAE8FC;" vertex="1" parent="1">
          <mxGeometry x="880" y="41" width="208" height="51" as="geometry" />
        </mxCell>
        <mxCell id="7BhhN1L9Lo45RrHUkkJ7-29" value="&lt;h1&gt;4&lt;/h1&gt;" style="rounded=1;whiteSpace=wrap;html=1;labelBackgroundColor=none;strokeColor=#7EA6E0;strokeWidth=1;fontColor=#666666;gradientColor=none;" vertex="1" parent="1">
          <mxGeometry x="843" y="119" width="31" height="29" as="geometry" />
        </mxCell>
        <mxCell id="7BhhN1L9Lo45RrHUkkJ7-30" value="Now we will go to Deploy EC2 using launch templates and Auto Scaling Groups." style="rounded=0;whiteSpace=wrap;html=1;labelBackgroundColor=none;strokeWidth=0;align=left;fillColor=none;strokeColor=#DAE8FC;" vertex="1" parent="1">
          <mxGeometry x="880" y="108" width="208" height="51" as="geometry" />
        </mxCell>
        <mxCell id="7BhhN1L9Lo45RrHUkkJ7-31" value="Last thing we will need for this project is a database. Amazon RDS." style="rounded=0;whiteSpace=wrap;html=1;labelBackgroundColor=none;strokeWidth=0;align=left;fillColor=none;strokeColor=#DAE8FC;" vertex="1" parent="1">
          <mxGeometry x="880" y="182" width="208" height="51" as="geometry" />
        </mxCell>
        <mxCell id="7BhhN1L9Lo45RrHUkkJ7-32" value="&lt;h1&gt;5&lt;/h1&gt;" style="rounded=1;whiteSpace=wrap;html=1;labelBackgroundColor=none;strokeColor=#7EA6E0;strokeWidth=1;fontColor=#666666;gradientColor=none;" vertex="1" parent="1">
          <mxGeometry x="843" y="193" width="31" height="29" as="geometry" />
        </mxCell>
      </root>
    </mxGraphModel>
  </diagram>
</mxfile>
